<svg width="32" height="32" viewBox="0 0 32 32" fill="none" xmlns="http://www.w3.org/2000/svg">
<path opacity="0.4" d="M24.0533 18.0666C23.4933 18.6133 23.1733 19.4 23.2533 20.24C23.3733 21.68 24.6933 22.7333 26.1333 22.7333H28.6666V24.32C28.6666 27.08 26.4133 29.3333 23.6533 29.3333H8.34665C5.58665 29.3333 3.33331 27.08 3.33331 24.32V15.3467C3.33331 12.5867 5.58665 10.3333 8.34665 10.3333H23.6533C26.4133 10.3333 28.6666 12.5867 28.6666 15.3467V17.2667H25.9733C25.2266 17.2667 24.5466 17.56 24.0533 18.0666Z" fill="#B5B5C3"/>
<path d="M19.8 5.26666V10.3333H8.34665C5.58665 10.3333 3.33331 12.5867 3.33331 15.3467V10.4533C3.33331 8.86668 4.30665 7.45329 5.78665 6.89329L16.3733 2.89329C18.0266 2.27996 19.8 3.49333 19.8 5.26666Z" fill="#B5B5C3"/>
<path d="M30.08 18.6266V21.3734C30.08 22.1067 29.4933 22.7066 28.7466 22.7333H26.1333C24.6933 22.7333 23.3733 21.68 23.2533 20.24C23.1733 19.4 23.4933 18.6133 24.0533 18.0666C24.5466 17.56 25.2266 17.2667 25.9733 17.2667H28.7466C29.4933 17.2933 30.08 17.8933 30.08 18.6266Z" fill="#B5B5C3"/>
<path d="M18.6666 17H9.33331C8.78665 17 8.33331 16.5467 8.33331 16C8.33331 15.4533 8.78665 15 9.33331 15H18.6666C19.2133 15 19.6666 15.4533 19.6666 16C19.6666 16.5467 19.2133 17 18.6666 17Z" fill="#B5B5C3"/>
</svg>
