<svg width="32" height="32" viewBox="0 0 32 32" fill="none" xmlns="http://www.w3.org/2000/svg">
<path opacity="0.4" d="M21.5867 2.66667H10.4267C5.57332 2.66667 2.67999 5.56 2.67999 10.4133V21.5733C2.67999 26.4267 5.57332 29.32 10.4267 29.32H21.5867C26.44 29.32 29.3333 26.4267 29.3333 21.5733V10.4133C29.3333 5.56 26.44 2.66667 21.5867 2.66667Z" fill="#B5B5C3"/>
<path d="M13.48 14.8667H9.94668C9.10668 14.8667 8.4267 15.5466 8.4267 16.3866V23.2133H13.48V14.8667V14.8667Z" fill="#B5B5C3"/>
<path opacity="0.4" d="M17.0133 8.79997H14.9867C14.1467 8.79997 13.4667 9.47999 13.4667 10.32V23.2H18.52V10.32C18.52 9.47999 17.8533 8.79997 17.0133 8.79997Z" fill="#B5B5C3"/>
<path d="M22.0667 17.1333H18.5333V23.2H23.5867V18.6533C23.5733 17.8133 22.8933 17.1333 22.0667 17.1333Z" fill="#B5B5C3"/>
</svg>
